<?xml version="1.0" encoding="UTF-8"?>
<svg xmlns="http://www.w3.org/2000/svg" xmlns:xlink="http://www.w3.org/1999/xlink" width="2001" height="2001" viewBox="0 0 2001 2001">
<path fill-rule="evenodd" fill="rgb(99.609375%, 99.609375%, 99.609375%)" fill-opacity="1" d="M 1 0.078125 L 2000.921875 0.078125 L 2000.921875 2000 L 1 2000 L 1 0.078125 "/>
<path fill-rule="evenodd" fill="rgb(99.609375%, 99.609375%, 99.609375%)" fill-opacity="1" d="M 1926.929688 1854.574219 C 1959.660156 1854.039062 1986.621094 1880.140625 1987.148438 1912.867188 C 1987.679688 1945.59375 1961.578125 1972.558594 1928.859375 1973.089844 C 1896.128906 1973.621094 1869.171875 1947.523438 1868.628906 1914.792969 C 1868.101562 1882.066406 1894.199219 1855.105469 1926.929688 1854.574219 "/>
<path fill-rule="evenodd" fill="rgb(99.609375%, 99.609375%, 99.609375%)" fill-opacity="1" d="M 1901.738281 1944.042969 L 1912.96875 1931.976562 C 1909.851562 1928.679688 1905.429688 1927.015625 1900.921875 1927.421875 L 1901.570312 1943.894531 C 1893.300781 1936.515625 1888.089844 1925.78125 1888.089844 1913.832031 C 1888.089844 1894.101562 1902.28125 1877.683594 1921.011719 1874.222656 L 1901.050781 1927.03125 C 1901.511719 1926.988281 1901.96875 1926.964844 1902.441406 1926.964844 C 1906.679688 1926.964844 1910.5 1928.75 1913.191406 1931.609375 L 1928.359375 1891.464844 L 1943.589844 1931.621094 C 1946.28125 1928.753906 1950.101562 1926.964844 1954.339844 1926.964844 C 1954.789062 1926.964844 1955.230469 1926.984375 1955.671875 1927.023438 L 1935.710938 1874.214844 C 1951.839844 1877.183594 1964.601562 1889.75 1967.851562 1905.773438 L 1980.308594 1903.296875 C 1975.421875 1879.085938 1954.03125 1860.851562 1928.378906 1860.851562 C 1899.121094 1860.851562 1875.398438 1884.570312 1875.398438 1913.832031 C 1875.398438 1943.089844 1899.121094 1966.808594 1928.378906 1966.808594 C 1954.179688 1966.808594 1975.671875 1948.363281 1980.390625 1923.941406 L 1967.941406 1921.464844 C 1966.570312 1928.609375 1963.308594 1935.082031 1958.699219 1940.347656 C 1959.171875 1939.3125 1959.070312 1938.132812 1958.121094 1937.082031 C 1958.699219 1940.355469 1954.550781 1939.589844 1956.988281 1936.71875 C 1958.558594 1934.769531 1958.441406 1932.652344 1957.03125 1930.546875 C 1957.851562 1931.085938 1958.050781 1931.640625 1958.46875 1933.195312 C 1959.011719 1930.617188 1957.480469 1928.144531 1955.75 1927.378906 C 1950.890625 1927.144531 1946.980469 1928.683594 1943.851562 1931.957031 C 1943.101562 1935.53125 1944.761719 1938.851562 1947.039062 1940.574219 C 1946.398438 1939.445312 1946.179688 1938.789062 1946.28125 1937.695312 C 1949.519531 1943.554688 1954.269531 1943.84375 1956.949219 1942.226562 C 1949.648438 1949.566406 1939.550781 1954.113281 1928.378906 1954.113281 C 1918.160156 1954.113281 1908.839844 1950.3125 1901.738281 1944.042969 Z M 1927.78125 1917.589844 L 1937.789062 1917.589844 L 1941.710938 1927.9375 L 1927.78125 1927.9375 L 1927.78125 1927.246094 L 1915.339844 1927.246094 L 1918.691406 1918.375 L 1927.78125 1918.375 L 1927.78125 1917.589844 "/>
<path fill-rule="evenodd" fill="rgb(99.609375%, 99.609375%, 99.609375%)" fill-opacity="1" d="M 1101.328125 1964.5 C 1103.421875 1964.464844 1105.148438 1966.136719 1105.179688 1968.230469 C 1105.210938 1970.324219 1103.539062 1972.046875 1101.449219 1972.082031 C 1099.359375 1972.117188 1097.628906 1970.445312 1097.601562 1968.351562 C 1097.558594 1966.257812 1099.230469 1964.53125 1101.328125 1964.5 "/>
<path fill-rule="evenodd" fill="rgb(99.609375%, 99.609375%, 99.609375%)" fill-opacity="1" d="M 1991.398438 1985.871094 L 935.90625 1985.871094 L 933.933594 1990.808594 L 1991.398438 1990.808594 L 1991.398438 1985.871094 "/>
<path fill-rule="evenodd" fill="rgb(99.609375%, 99.609375%, 99.609375%)" fill-opacity="1" d="M 1170.269531 1959.964844 C 1173.890625 1959.90625 1176.878906 1962.796875 1176.941406 1966.421875 C 1177 1970.050781 1174.101562 1973.039062 1170.480469 1973.097656 C 1166.851562 1973.15625 1163.859375 1970.261719 1163.800781 1966.636719 C 1163.75 1963.011719 1166.640625 1960.023438 1170.269531 1959.964844 "/>
<path fill-rule="evenodd" fill="rgb(99.609375%, 99.609375%, 99.609375%)" fill-opacity="1" d="M 1251.929688 1956.058594 C 1256.640625 1955.980469 1260.519531 1959.742188 1260.601562 1964.457031 C 1260.679688 1969.171875 1256.921875 1973.054688 1252.199219 1973.132812 C 1247.488281 1973.207031 1243.601562 1969.449219 1243.53125 1964.734375 C 1243.449219 1960.019531 1247.210938 1956.136719 1251.929688 1956.058594 "/>
<path fill-rule="evenodd" fill="rgb(99.609375%, 99.609375%, 99.609375%)" fill-opacity="1" d="M 1337.628906 1951.933594 C 1343.5 1951.839844 1348.328125 1956.515625 1348.421875 1962.378906 C 1348.519531 1968.242188 1343.839844 1973.074219 1337.980469 1973.167969 C 1332.121094 1973.261719 1327.28125 1968.585938 1327.191406 1962.722656 C 1327.089844 1956.859375 1331.769531 1952.03125 1337.628906 1951.933594 "/>
<path fill-rule="evenodd" fill="rgb(99.609375%, 99.609375%, 99.609375%)" fill-opacity="1" d="M 1429.390625 1943.871094 C 1437.488281 1943.742188 1444.160156 1950.199219 1444.289062 1958.300781 C 1444.429688 1966.398438 1437.96875 1973.074219 1429.871094 1973.203125 C 1421.769531 1973.335938 1415.089844 1966.875 1414.960938 1958.777344 C 1414.828125 1950.675781 1421.289062 1944.003906 1429.390625 1943.871094 "/>
<path fill-rule="evenodd" fill="rgb(99.609375%, 99.609375%, 99.609375%)" fill-opacity="1" d="M 1527.890625 1938.65625 C 1537.441406 1938.5 1545.300781 1946.117188 1545.460938 1955.664062 C 1545.621094 1965.21875 1538 1973.085938 1528.449219 1973.238281 C 1518.898438 1973.394531 1511.03125 1965.777344 1510.871094 1956.226562 C 1510.71875 1946.679688 1518.339844 1938.808594 1527.890625 1938.65625 "/>
<path fill-rule="evenodd" fill="rgb(99.609375%, 99.609375%, 99.609375%)" fill-opacity="1" d="M 1637.019531 1922.230469 C 1651.121094 1922.003906 1662.730469 1933.246094 1662.960938 1947.339844 C 1663.191406 1961.4375 1651.949219 1973.046875 1637.851562 1973.277344 C 1623.761719 1973.507812 1612.140625 1962.265625 1611.910156 1948.167969 C 1611.679688 1934.074219 1622.921875 1922.460938 1637.019531 1922.230469 "/>
<path fill-rule="evenodd" fill="rgb(99.609375%, 99.609375%, 99.609375%)" fill-opacity="1" d="M 1765.328125 1900.035156 C 1785.53125 1899.707031 1802.171875 1915.816406 1802.5 1936.015625 C 1802.828125 1956.214844 1786.71875 1972.855469 1766.519531 1973.183594 C 1746.320312 1973.511719 1729.679688 1957.402344 1729.351562 1937.203125 C 1729.019531 1917.003906 1745.128906 1900.363281 1765.328125 1900.035156 "/>
<path fill-rule="evenodd" fill="rgb(91.40625%, 29.80957%, 23.925781%)" fill-opacity="1" d="M 158.980469 1255.621094 L 1842.941406 1255.621094 L 1842.941406 1369.097656 L 158.980469 1369.097656 L 158.980469 1255.621094 "/>
<path fill-rule="evenodd" fill="rgb(91.40625%, 29.80957%, 23.925781%)" fill-opacity="1" d="M 158.980469 1047.410156 L 1842.941406 1047.410156 L 1842.941406 1160.882812 L 158.980469 1160.882812 L 158.980469 1047.410156 "/>
<path fill-rule="evenodd" fill="rgb(91.40625%, 29.80957%, 23.925781%)" fill-opacity="1" d="M 983.464844 630.980469 L 1842.941406 630.980469 L 1842.941406 744.460938 L 983.464844 744.460938 L 983.464844 630.980469 "/>
<path fill-rule="evenodd" fill="rgb(91.40625%, 29.80957%, 23.925781%)" fill-opacity="1" d="M 983.464844 422.769531 L 1842.941406 422.769531 L 1842.941406 536.238281 L 983.464844 536.238281 L 983.464844 422.769531 "/>
<path fill-rule="evenodd" fill="rgb(91.40625%, 29.80957%, 23.925781%)" fill-opacity="1" d="M 983.464844 839.199219 L 1842.941406 839.199219 L 1842.941406 952.671875 L 983.464844 952.671875 L 983.464844 839.199219 "/>
<path fill-rule="evenodd" fill="rgb(91.40625%, 29.80957%, 23.925781%)" fill-opacity="1" d="M 158.980469 1463.835938 L 1842.941406 1463.835938 L 1842.941406 1577.3125 L 158.980469 1577.3125 L 158.980469 1463.835938 "/>
<path fill-rule="evenodd" fill="rgb(28.24707%, 51.756287%, 76.5625%)" fill-opacity="1" d="M 158.980469 424.179688 L 918.363281 424.179688 L 918.363281 954.078125 L 158.980469 954.078125 L 158.980469 424.179688 "/>
<path fill-rule="evenodd" fill="rgb(99.609375%, 99.609375%, 99.609375%)" fill-opacity="1" d="M 278.589844 468.859375 L 294.902344 508.78125 L 337.914062 511.960938 L 304.984375 539.808594 L 315.253906 581.699219 L 278.589844 558.988281 L 241.921875 581.699219 L 252.191406 539.808594 L 219.261719 511.960938 L 262.273438 508.78125 L 278.589844 468.859375 "/>
<path fill-rule="evenodd" fill="rgb(99.609375%, 99.609375%, 99.609375%)" fill-opacity="1" d="M 444.304688 468.859375 L 460.621094 508.78125 L 503.632812 511.960938 L 470.703125 539.808594 L 480.972656 581.699219 L 444.304688 558.988281 L 407.640625 581.699219 L 417.90625 539.808594 L 384.976562 511.960938 L 427.988281 508.78125 L 444.304688 468.859375 "/>
<path fill-rule="evenodd" fill="rgb(99.609375%, 99.609375%, 99.609375%)" fill-opacity="1" d="M 612.609375 468.859375 L 628.925781 508.78125 L 671.9375 511.960938 L 639.007812 539.808594 L 649.277344 581.699219 L 612.609375 558.988281 L 575.945312 581.699219 L 586.214844 539.808594 L 553.285156 511.960938 L 596.296875 508.78125 L 612.609375 468.859375 "/>
<path fill-rule="evenodd" fill="rgb(99.609375%, 99.609375%, 99.609375%)" fill-opacity="1" d="M 278.589844 622.160156 L 294.902344 662.089844 L 337.914062 665.269531 L 304.984375 693.121094 L 315.253906 735.011719 L 278.589844 712.300781 L 241.921875 735.011719 L 252.191406 693.121094 L 219.261719 665.269531 L 262.273438 662.089844 L 278.589844 622.160156 "/>
<path fill-rule="evenodd" fill="rgb(99.609375%, 99.609375%, 99.609375%)" fill-opacity="1" d="M 444.304688 622.160156 L 460.621094 662.089844 L 503.632812 665.269531 L 470.703125 693.121094 L 480.972656 735.011719 L 444.304688 712.300781 L 407.640625 735.011719 L 417.90625 693.121094 L 384.976562 665.269531 L 427.988281 662.089844 L 444.304688 622.160156 "/>
<path fill-rule="evenodd" fill="rgb(99.609375%, 99.609375%, 99.609375%)" fill-opacity="1" d="M 612.609375 622.160156 L 628.925781 662.089844 L 671.9375 665.269531 L 639.007812 693.121094 L 649.277344 735.011719 L 612.609375 712.300781 L 575.945312 735.011719 L 586.214844 693.121094 L 553.285156 665.269531 L 596.296875 662.089844 L 612.609375 622.160156 "/>
<path fill-rule="evenodd" fill="rgb(99.609375%, 99.609375%, 99.609375%)" fill-opacity="1" d="M 278.589844 775.46875 L 294.902344 815.398438 L 337.914062 818.578125 L 304.984375 846.429688 L 315.253906 888.320312 L 278.589844 865.609375 L 241.921875 888.320312 L 252.191406 846.429688 L 219.261719 818.578125 L 262.273438 815.398438 L 278.589844 775.46875 "/>
<path fill-rule="evenodd" fill="rgb(99.609375%, 99.609375%, 99.609375%)" fill-opacity="1" d="M 444.304688 775.46875 L 460.621094 815.398438 L 503.632812 818.578125 L 470.703125 846.429688 L 480.972656 888.320312 L 444.304688 865.609375 L 407.640625 888.320312 L 417.90625 846.429688 L 384.976562 818.578125 L 427.988281 815.398438 L 444.304688 775.46875 "/>
<path fill-rule="evenodd" fill="rgb(99.609375%, 99.609375%, 99.609375%)" fill-opacity="1" d="M 612.609375 775.46875 L 628.925781 815.398438 L 671.9375 818.578125 L 639.007812 846.429688 L 649.277344 888.320312 L 612.609375 865.609375 L 575.945312 888.320312 L 586.214844 846.429688 L 553.285156 818.578125 L 596.296875 815.398438 L 612.609375 775.46875 "/>
<path fill-rule="evenodd" fill="rgb(99.609375%, 99.609375%, 99.609375%)" fill-opacity="1" d="M 777.777344 468.859375 L 794.09375 508.78125 L 837.105469 511.960938 L 804.175781 539.808594 L 814.441406 581.699219 L 777.777344 558.988281 L 741.109375 581.699219 L 751.378906 539.808594 L 718.449219 511.960938 L 761.460938 508.78125 L 777.777344 468.859375 "/>
<path fill-rule="evenodd" fill="rgb(99.609375%, 99.609375%, 99.609375%)" fill-opacity="1" d="M 777.777344 622.160156 L 794.09375 662.089844 L 837.105469 665.269531 L 804.175781 693.121094 L 814.441406 735.011719 L 777.777344 712.300781 L 741.109375 735.011719 L 751.378906 693.121094 L 718.449219 665.269531 L 761.460938 662.089844 L 777.777344 622.160156 "/>
<path fill-rule="evenodd" fill="rgb(99.609375%, 99.609375%, 99.609375%)" fill-opacity="1" d="M 777.777344 775.46875 L 794.09375 815.398438 L 837.105469 818.578125 L 804.175781 846.429688 L 814.441406 888.320312 L 777.777344 865.609375 L 741.109375 888.320312 L 751.378906 846.429688 L 718.449219 818.578125 L 761.460938 815.398438 L 777.777344 775.46875 "/>
</svg>
