<?xml version="1.0" encoding="UTF-8"?>
<svg xmlns="http://www.w3.org/2000/svg" xmlns:xlink="http://www.w3.org/1999/xlink" width="4001" height="2803" viewBox="0 0 4001 2803">

<path fill-rule="evenodd" fill="rgb(97.264099%, 89.84375%, 3.529358%)" fill-opacity="1" d="M 307.390625 1408.410156 L 1996.160156 305.679688 L 3660.660156 1394.539062 L 1982.300781 2497.269531 L 307.390625 1408.410156 "/>
<path fill-rule="evenodd" fill="rgb(16.868591%, 28.637695%, 63.867188%)" fill-opacity="1" d="M 2019.570312 680.191406 C 2416.011719 680.191406 2737.398438 1001.578125 2737.398438 1398.011719 C 2737.398438 1794.441406 2416.011719 2115.828125 2019.570312 2115.828125 C 1623.128906 2115.828125 1301.761719 1794.441406 1301.761719 1398.011719 C 1301.761719 1001.578125 1623.128906 680.191406 2019.570312 680.191406 "/>
<path fill-rule="evenodd" fill="rgb(100%, 100%, 100%)" fill-opacity="1" d="M 2722.128906 1545.769531 C 2714.308594 1583.121094 2703.570312 1619.378906 2690.210938 1654.351562 C 2568.378906 1538.238281 2058.421875 1104.421875 1328.910156 1201.78125 C 1341.058594 1158.960938 1357.109375 1117.800781 1376.601562 1078.640625 C 1379.351562 1078.171875 2076.179688 960.441406 2722.128906 1545.769531 "/>
<path fill-rule="nonzero" fill="rgb(19.993591%, 62.693787%, 23.925781%)" fill-opacity="1" d="M 1503 1161.691406 L 1506.230469 1086.089844 L 1544 1087.699219 C 1553.488281 1088.101562 1560.371094 1089.078125 1564.609375 1090.621094 C 1568.871094 1092.160156 1572.199219 1094.710938 1574.640625 1098.300781 C 1577.078125 1101.890625 1578.210938 1105.910156 1578.019531 1110.371094 C 1577.78125 1116.050781 1575.640625 1120.660156 1571.570312 1124.191406 C 1567.511719 1127.710938 1561.570312 1129.789062 1553.761719 1130.429688 C 1557.550781 1132.5 1560.640625 1134.761719 1563.039062 1137.171875 C 1565.460938 1139.578125 1568.679688 1143.820312 1572.691406 1149.878906 L 1582.898438 1165.101562 L 1561.449219 1164.179688 L 1549.300781 1147.121094 C 1544.941406 1141.070312 1541.941406 1137.238281 1540.289062 1135.628906 C 1538.648438 1134.050781 1536.898438 1132.921875 1535.019531 1132.269531 C 1533.121094 1131.621094 1530.109375 1131.21875 1525.980469 1131.039062 L 1522.339844 1130.890625 L 1521 1162.460938 Z M 1522.851562 1118.839844 L 1536.128906 1119.410156 C 1544.730469 1119.78125 1550.101562 1119.679688 1552.28125 1119.171875 C 1554.421875 1118.640625 1556.171875 1117.640625 1557.421875 1116.179688 C 1558.71875 1114.710938 1559.390625 1112.839844 1559.488281 1110.570312 C 1559.601562 1108.019531 1558.878906 1105.941406 1557.359375 1104.289062 C 1555.828125 1102.660156 1553.621094 1101.578125 1550.75 1101.050781 C 1549.289062 1100.800781 1544.929688 1100.539062 1537.671875 1100.230469 L 1523.671875 1099.621094 L 1522.851562 1118.839844 "/>
<path fill-rule="nonzero" fill="rgb(19.993591%, 62.693787%, 23.925781%)" fill-opacity="1" d="M 1597.988281 1089.628906 L 1630.648438 1091.941406 C 1638.011719 1092.460938 1643.601562 1093.328125 1647.390625 1094.570312 C 1652.480469 1096.230469 1656.769531 1098.871094 1660.238281 1102.460938 C 1663.71875 1106.050781 1666.230469 1110.320312 1667.839844 1115.289062 C 1669.410156 1120.238281 1669.96875 1126.269531 1669.460938 1133.328125 C 1669.03125 1139.558594 1667.738281 1144.828125 1665.601562 1149.199219 C 1663.011719 1154.539062 1659.539062 1158.769531 1655.191406 1161.871094 C 1651.910156 1164.230469 1647.578125 1165.941406 1642.210938 1167.011719 C 1638.191406 1167.800781 1632.890625 1167.960938 1626.28125 1167.488281 L 1592.660156 1165.121094 Z M 1615.050781 1103.648438 L 1611.519531 1153.628906 L 1624.828125 1154.558594 C 1629.808594 1154.921875 1633.421875 1154.929688 1635.660156 1154.609375 C 1638.621094 1154.191406 1641.078125 1153.320312 1643.089844 1151.96875 C 1645.109375 1150.628906 1646.828125 1148.320312 1648.269531 1145.03125 C 1649.71875 1141.738281 1650.640625 1137.160156 1651.058594 1131.320312 C 1651.46875 1125.5 1651.191406 1120.988281 1650.191406 1117.769531 C 1649.21875 1114.558594 1647.691406 1112.019531 1645.648438 1110.101562 C 1643.609375 1108.21875 1640.949219 1106.820312 1637.648438 1105.96875 C 1635.199219 1105.320312 1630.320312 1104.738281 1623.058594 1104.21875 L 1615.050781 1103.648438 "/>
<path fill-rule="nonzero" fill="rgb(19.993591%, 62.693787%, 23.925781%)" fill-opacity="1" d="M 1682.289062 1171.859375 L 1690.929688 1096.679688 L 1756.320312 1104.199219 L 1754.851562 1116.898438 L 1707.359375 1111.441406 L 1705.441406 1128.140625 L 1749.601562 1133.210938 L 1748.140625 1145.921875 L 1703.980469 1140.839844 L 1701.640625 1161.210938 L 1750.851562 1166.871094 L 1749.390625 1179.570312 L 1682.289062 1171.859375 "/>
<path fill-rule="nonzero" fill="rgb(19.993591%, 62.693787%, 23.925781%)" fill-opacity="1" d="M 1769.300781 1184.628906 L 1774.421875 1109.121094 L 1801.320312 1110.949219 L 1813.730469 1163.519531 L 1832.929688 1113.089844 L 1859.898438 1114.921875 L 1854.78125 1190.421875 L 1838.179688 1189.300781 L 1842.148438 1129.851562 L 1820.640625 1188.109375 L 1803.371094 1186.941406 L 1789.988281 1126.320312 L 1785.898438 1185.75 L 1769.300781 1184.628906 "/>
<path fill-rule="nonzero" fill="rgb(19.993591%, 62.693787%, 23.925781%)" fill-opacity="1" d="M 1890.960938 1196.761719 L 1906.078125 1146.398438 L 1943.421875 1157.621094 L 1940.871094 1166.128906 L 1913.679688 1157.980469 L 1910.351562 1169.140625 L 1935.609375 1176.730469 L 1933.070312 1185.21875 L 1907.789062 1177.621094 L 1903.671875 1191.328125 L 1931.808594 1199.78125 L 1929.25 1208.261719 L 1890.960938 1196.761719 "/>
<path fill="none" stroke-width="7.46948" stroke-linecap="butt" stroke-linejoin="miter" stroke="rgb(19.993591%, 62.693787%, 23.925781%)" stroke-opacity="1" stroke-miterlimit="2.61313" d="M 18909.609375 16062.382812 L 19060.78125 16566.015625 L 19434.21875 16453.789062 L 19408.710938 16368.710938 L 19136.796875 16450.195312 L 19103.515625 16338.59375 L 19356.09375 16262.695312 L 19330.703125 16177.8125 L 19077.890625 16253.789062 L 19036.71875 16116.71875 L 19318.085938 16032.1875 L 19292.5 15947.382812 Z M 18909.609375 16062.382812 " transform="matrix(0.1, 0, 0, -0.1, 0, 2803)"/>
<path fill-rule="nonzero" fill="rgb(19.993591%, 62.693787%, 23.925781%)" fill-opacity="1" d="M 1982.269531 1238.820312 L 1995.339844 1155.511719 L 2022.339844 1159.761719 C 2032.570312 1161.351562 2039.171875 1162.808594 2042.160156 1164.148438 C 2046.71875 1166.148438 2050.300781 1169.480469 2052.859375 1174.179688 C 2055.421875 1178.871094 2056.171875 1184.53125 2055.140625 1191.171875 C 2054.351562 1196.28125 2052.738281 1200.429688 2050.328125 1203.628906 C 2047.929688 1206.820312 2045.148438 1209.179688 2041.960938 1210.71875 C 2038.800781 1212.269531 2035.679688 1213.121094 2032.621094 1213.308594 C 2028.488281 1213.46875 2022.621094 1212.949219 2014.988281 1211.761719 L 2004.019531 1210.050781 L 1999.101562 1241.46875 Z M 2009.960938 1172.25 L 2006.25 1195.898438 L 2015.460938 1197.339844 C 2022.078125 1198.371094 2026.589844 1198.640625 2028.96875 1198.128906 C 2031.320312 1197.589844 2033.300781 1196.5 2034.851562 1194.851562 C 2036.421875 1193.199219 2037.378906 1191.140625 2037.769531 1188.660156 C 2038.25 1185.628906 2037.769531 1183 2036.28125 1180.738281 C 2034.808594 1178.5 2032.75 1176.910156 2030.089844 1175.988281 C 2028.140625 1175.289062 2024.148438 1174.46875 2018.078125 1173.519531 L 2009.960938 1172.25 "/>
<path fill-rule="nonzero" fill="rgb(19.993591%, 62.693787%, 23.925781%)" fill-opacity="1" d="M 2049.988281 1251.421875 L 2083.191406 1173.921875 L 2116.140625 1188.039062 C 2124.421875 1191.589844 2130.140625 1194.859375 2133.289062 1197.851562 C 2136.449219 1200.859375 2138.390625 1204.621094 2139.128906 1209.140625 C 2139.851562 1213.679688 2139.238281 1218.230469 2137.28125 1222.820312 C 2134.78125 1228.628906 2131.011719 1232.691406 2125.980469 1235.019531 C 2120.921875 1237.351562 2114.789062 1237.539062 2107.570312 1235.621094 C 2110.109375 1239.039062 2111.980469 1242.410156 2113.171875 1245.710938 C 2114.351562 1249.019531 2115.539062 1254.480469 2116.679688 1262.101562 L 2119.660156 1281.28125 L 2100.949219 1273.261719 L 2096.871094 1251.550781 C 2095.429688 1243.789062 2094.300781 1238.820312 2093.5 1236.621094 C 2092.691406 1234.410156 2091.578125 1232.679688 2090.171875 1231.378906 C 2088.769531 1230.089844 2086.261719 1228.660156 2082.671875 1227.128906 L 2079.511719 1225.769531 L 2065.628906 1258.128906 Z M 2084.789062 1213.390625 L 2096.378906 1218.371094 C 2103.878906 1221.578125 2108.710938 1223.28125 2110.851562 1223.441406 C 2112.988281 1223.601562 2114.921875 1223.128906 2116.628906 1222.03125 C 2118.351562 1220.941406 2119.71875 1219.230469 2120.71875 1216.910156 C 2121.828125 1214.300781 2122.050781 1211.890625 2121.328125 1209.710938 C 2120.621094 1207.5 2119.089844 1205.628906 2116.730469 1204.128906 C 2115.558594 1203.410156 2111.789062 1201.691406 2105.441406 1198.960938 L 2093.230469 1193.738281 L 2084.789062 1213.390625 "/>
<path fill-rule="nonzero" fill="rgb(19.993591%, 62.693787%, 23.925781%)" fill-opacity="1" d="M 2140.609375 1248.808594 C 2143.238281 1240.628906 2146.710938 1234.171875 2150.949219 1229.421875 C 2154.101562 1225.929688 2157.78125 1223.070312 2161.980469 1220.851562 C 2166.191406 1218.621094 2170.429688 1217.339844 2174.691406 1216.980469 C 2180.378906 1216.5 2186.480469 1217.320312 2193.019531 1219.441406 C 2204.839844 1223.269531 2213.089844 1230 2217.808594 1239.628906 C 2222.53125 1249.28125 2222.761719 1260.621094 2218.53125 1273.671875 C 2214.328125 1286.621094 2207.519531 1295.609375 2198.101562 1300.640625 C 2188.691406 1305.671875 2178.078125 1306.269531 2166.300781 1302.460938 C 2154.390625 1298.578125 2146.078125 1291.859375 2141.410156 1282.300781 C 2136.730469 1272.730469 2136.460938 1261.558594 2140.609375 1248.808594 Z M 2157.46875 1253.691406 C 2154.519531 1262.761719 2154.378906 1270.320312 2157.050781 1276.378906 C 2159.738281 1282.410156 2164.308594 1286.5 2170.75 1288.589844 C 2177.21875 1290.679688 2183.25 1290.070312 2188.898438 1286.761719 C 2194.550781 1283.46875 2198.890625 1277.160156 2201.910156 1267.851562 C 2204.898438 1258.671875 2205.089844 1251.160156 2202.550781 1245.320312 C 2199.988281 1239.5 2195.359375 1235.488281 2188.691406 1233.328125 C 2182.019531 1231.160156 2175.890625 1231.691406 2170.308594 1234.949219 C 2164.75 1238.199219 2160.46875 1244.449219 2157.46875 1253.691406 "/>
<path fill-rule="nonzero" fill="rgb(19.993591%, 62.693787%, 23.925781%)" fill-opacity="1" d="M 2259.519531 1309.058594 L 2265.738281 1296.28125 L 2298.71875 1312.359375 L 2284.019531 1342.570312 C 2279.300781 1344.101562 2273.328125 1344.578125 2266.101562 1343.96875 C 2258.859375 1343.371094 2252.128906 1341.539062 2245.878906 1338.5 C 2237.949219 1334.648438 2231.839844 1329.609375 2227.578125 1323.421875 C 2223.308594 1317.21875 2221.179688 1310.289062 2221.230469 1302.671875 C 2221.289062 1295.019531 2223.070312 1287.578125 2226.628906 1280.308594 C 2230.480469 1272.421875 2235.539062 1266.210938 2241.851562 1261.691406 C 2248.128906 1257.148438 2255.28125 1254.808594 2263.238281 1254.640625 C 2269.339844 1254.511719 2276 1256.191406 2283.230469 1259.699219 C 2292.648438 1264.300781 2299.03125 1269.851562 2302.421875 1276.378906 C 2305.78125 1282.890625 2306.53125 1290.011719 2304.640625 1297.710938 L 2288.058594 1293.148438 C 2288.808594 1288.898438 2288.230469 1284.988281 2286.328125 1281.398438 C 2284.429688 1277.820312 2281.269531 1274.929688 2276.871094 1272.789062 C 2270.171875 1269.53125 2263.828125 1269.070312 2257.808594 1271.390625 C 2251.800781 1273.691406 2246.769531 1279.039062 2242.710938 1287.371094 C 2238.300781 1296.371094 2237.039062 1304.101562 2238.828125 1310.539062 C 2240.640625 1316.988281 2244.789062 1321.78125 2251.269531 1324.941406 C 2254.480469 1326.511719 2258 1327.449219 2261.828125 1327.761719 C 2265.660156 1328.050781 2269.179688 1327.871094 2272.359375 1327.230469 L 2277.050781 1317.589844 L 2259.519531 1309.058594 "/>
<path fill-rule="nonzero" fill="rgb(19.993591%, 62.693787%, 23.925781%)" fill-opacity="1" d="M 2299.351562 1365.398438 L 2337.351562 1290.121094 L 2369.351562 1306.28125 C 2377.410156 1310.339844 2382.898438 1313.96875 2385.871094 1317.160156 C 2388.828125 1320.359375 2390.539062 1324.21875 2390.980469 1328.808594 C 2391.410156 1333.359375 2390.519531 1337.859375 2388.269531 1342.320312 C 2385.421875 1347.960938 2381.410156 1351.789062 2376.230469 1353.800781 C 2371.039062 1355.808594 2364.910156 1355.601562 2357.839844 1353.238281 C 2360.148438 1356.808594 2361.789062 1360.28125 2362.769531 1363.648438 C 2363.75 1367.03125 2364.578125 1372.570312 2365.261719 1380.25 L 2367.03125 1399.578125 L 2348.859375 1390.398438 L 2346.140625 1368.46875 C 2345.191406 1360.640625 2344.378906 1355.601562 2343.699219 1353.359375 C 2343.050781 1351.109375 2342.039062 1349.300781 2340.738281 1347.921875 C 2339.410156 1346.53125 2337 1344.960938 2333.488281 1343.210938 L 2330.421875 1341.660156 L 2314.550781 1373.089844 Z M 2336.488281 1329.640625 L 2347.738281 1335.320312 C 2355.019531 1338.988281 2359.71875 1340.988281 2361.859375 1341.28125 C 2363.988281 1341.589844 2365.929688 1341.25 2367.730469 1340.261719 C 2369.519531 1339.269531 2370.988281 1337.648438 2372.128906 1335.378906 C 2373.398438 1332.851562 2373.75 1330.460938 2373.191406 1328.230469 C 2372.621094 1325.988281 2371.21875 1324.039062 2368.949219 1322.390625 C 2367.820312 1321.589844 2364.160156 1319.640625 2357.988281 1316.519531 L 2346.140625 1310.539062 L 2336.488281 1329.640625 "/>
<path fill-rule="nonzero" fill="rgb(19.993591%, 62.693787%, 23.925781%)" fill-opacity="1" d="M 2375.058594 1405.710938 L 2417.210938 1332.601562 L 2471.410156 1363.839844 L 2464.289062 1376.199219 L 2424.828125 1353.480469 L 2415.488281 1369.679688 L 2452.199219 1390.839844 L 2445.109375 1403.160156 L 2408.390625 1382 L 2396.929688 1401.898438 L 2437.78125 1425.449219 L 2430.679688 1437.78125 L 2375.058594 1405.710938 "/>
<path fill-rule="nonzero" fill="rgb(19.993591%, 62.693787%, 23.925781%)" fill-opacity="1" d="M 2453.320312 1422.761719 L 2467.738281 1431.089844 C 2465.328125 1436.210938 2464.589844 1440.71875 2465.550781 1444.609375 C 2466.511719 1448.511719 2469.109375 1451.960938 2473.308594 1454.96875 C 2477.789062 1458.171875 2481.828125 1459.628906 2485.441406 1459.359375 C 2489.058594 1459.089844 2491.761719 1457.691406 2493.578125 1455.160156 C 2494.730469 1453.539062 2495.238281 1451.808594 2495.109375 1449.980469 C 2494.96875 1448.179688 2494.019531 1446 2492.25 1443.460938 C 2491.039062 1441.730469 2488.050781 1438.089844 2483.289062 1432.519531 C 2477.191406 1425.371094 2473.589844 1419.378906 2472.5 1414.550781 C 2470.988281 1407.761719 2472.179688 1401.640625 2476.058594 1396.21875 C 2478.570312 1392.710938 2481.898438 1390.171875 2486.058594 1388.539062 C 2490.21875 1386.898438 2494.710938 1386.628906 2499.589844 1387.710938 C 2504.46875 1388.769531 2509.53125 1391.210938 2514.808594 1394.980469 C 2523.421875 1401.140625 2528.550781 1407.660156 2530.21875 1414.550781 C 2531.851562 1421.441406 2530.550781 1428.128906 2526.25 1434.589844 L 2511.96875 1425.269531 C 2513.898438 1421.339844 2514.429688 1417.878906 2513.601562 1414.949219 C 2512.738281 1412.011719 2510.371094 1409.140625 2506.46875 1406.351562 C 2502.449219 1403.46875 2498.679688 1402.039062 2495.230469 1402.078125 C 2493.011719 1402.089844 2491.261719 1402.980469 2489.988281 1404.75 C 2488.820312 1406.378906 2488.519531 1408.261719 2489.070312 1410.390625 C 2489.769531 1413.121094 2492.910156 1417.691406 2498.53125 1424.089844 C 2504.128906 1430.511719 2507.949219 1435.71875 2509.941406 1439.730469 C 2511.96875 1443.75 2512.820312 1447.871094 2512.550781 1452.128906 C 2512.28125 1456.378906 2510.589844 1460.691406 2507.480469 1465.019531 C 2504.660156 1468.949219 2500.921875 1471.851562 2496.289062 1473.738281 C 2491.640625 1475.609375 2486.730469 1475.941406 2481.539062 1474.761719 C 2476.359375 1473.570312 2470.78125 1470.828125 2464.828125 1466.578125 C 2456.128906 1460.378906 2450.921875 1453.601562 2449.109375 1446.261719 C 2447.328125 1438.941406 2448.738281 1431.089844 2453.320312 1422.761719 "/>
<path fill-rule="nonzero" fill="rgb(19.993591%, 62.693787%, 23.925781%)" fill-opacity="1" d="M 2518.070312 1465.378906 L 2531.929688 1474.601562 C 2529.191406 1479.550781 2528.191406 1484 2528.898438 1487.941406 C 2529.621094 1491.890625 2531.988281 1495.511719 2536.011719 1498.78125 C 2540.261719 1502.21875 2544.179688 1503.949219 2547.808594 1503.898438 C 2551.429688 1503.839844 2554.230469 1502.628906 2556.179688 1500.210938 C 2557.441406 1498.671875 2558.058594 1497 2558.050781 1495.179688 C 2558.019531 1493.351562 2557.210938 1491.109375 2555.601562 1488.46875 C 2554.480469 1486.671875 2551.75 1482.839844 2547.351562 1477 C 2541.699219 1469.480469 2538.488281 1463.269531 2537.71875 1458.398438 C 2536.628906 1451.53125 2538.191406 1445.511719 2542.421875 1440.320312 C 2545.128906 1437 2548.609375 1434.671875 2552.859375 1433.289062 C 2557.121094 1431.921875 2561.640625 1431.949219 2566.421875 1433.328125 C 2571.199219 1434.699219 2576.121094 1437.441406 2581.140625 1441.53125 C 2589.351562 1448.210938 2594.058594 1455.050781 2595.289062 1462.019531 C 2596.5 1469 2594.761719 1475.578125 2590.078125 1481.75 L 2576.398438 1471.570312 C 2578.570312 1467.761719 2579.328125 1464.359375 2578.679688 1461.371094 C 2578 1458.378906 2575.820312 1455.390625 2572.109375 1452.351562 C 2568.269531 1449.230469 2564.621094 1447.570312 2561.160156 1447.378906 C 2558.941406 1447.238281 2557.160156 1448.039062 2555.769531 1449.71875 C 2554.511719 1451.261719 2554.089844 1453.128906 2554.5 1455.289062 C 2555.019531 1458.039062 2557.878906 1462.789062 2563.058594 1469.550781 C 2568.261719 1476.300781 2571.71875 1481.730469 2573.480469 1485.859375 C 2575.238281 1489.988281 2575.839844 1494.179688 2575.308594 1498.398438 C 2574.75 1502.609375 2572.789062 1506.800781 2569.421875 1510.929688 C 2566.359375 1514.679688 2562.480469 1517.339844 2557.710938 1518.921875 C 2552.96875 1520.5 2548.058594 1520.519531 2542.960938 1519.019531 C 2537.851562 1517.511719 2532.449219 1514.429688 2526.769531 1509.820312 C 2518.511719 1503.070312 2513.71875 1496 2512.410156 1488.558594 C 2511.078125 1481.121094 2512.980469 1473.398438 2518.070312 1465.378906 "/>
<path fill-rule="nonzero" fill="rgb(19.993591%, 62.693787%, 23.925781%)" fill-opacity="1" d="M 2586.21875 1502.148438 C 2591.160156 1495.140625 2596.371094 1489.96875 2601.820312 1486.691406 C 2605.871094 1484.269531 2610.238281 1482.621094 2614.910156 1481.75 C 2619.601562 1480.871094 2624.019531 1480.890625 2628.21875 1481.820312 C 2633.78125 1483.011719 2639.378906 1485.601562 2644.988281 1489.539062 C 2655.171875 1496.71875 2661.078125 1505.601562 2662.75 1516.199219 C 2664.398438 1526.820312 2661.269531 1537.730469 2653.351562 1548.960938 C 2645.519531 1560.089844 2636.359375 1566.691406 2625.878906 1568.691406 C 2615.378906 1570.71875 2605.070312 1568.171875 2594.949219 1561.039062 C 2584.671875 1553.800781 2578.730469 1544.929688 2577.078125 1534.410156 C 2575.449219 1523.890625 2578.480469 1513.140625 2586.21875 1502.148438 Z M 2600.890625 1511.800781 C 2595.390625 1519.609375 2593.039062 1526.800781 2593.789062 1533.371094 C 2594.570312 1539.960938 2597.730469 1545.191406 2603.289062 1549.101562 C 2608.839844 1553.011719 2614.808594 1554.21875 2621.179688 1552.738281 C 2627.558594 1551.230469 2633.558594 1546.488281 2639.199219 1538.480469 C 2644.769531 1530.578125 2647.179688 1523.46875 2646.46875 1517.121094 C 2645.730469 1510.808594 2642.5 1505.609375 2636.761719 1501.558594 C 2631.011719 1497.519531 2625 1496.230469 2618.710938 1497.699219 C 2612.429688 1499.160156 2606.5 1503.859375 2600.890625 1511.800781 "/>
<path fill-rule="evenodd" fill="rgb(100%, 100%, 100%)" fill-opacity="1" d="M 2249.28125 1152.539062 L 2257.46875 1170.441406 L 2277.019531 1172.691406 L 2262.519531 1186.011719 L 2266.429688 1205.300781 L 2249.28125 1195.621094 L 2232.140625 1205.300781 L 2236.039062 1186.011719 L 2221.539062 1172.691406 L 2241.101562 1170.441406 L 2249.28125 1152.539062 "/>
<path fill="none" stroke-width="138.321" stroke-linecap="butt" stroke-linejoin="miter" stroke="rgb(100%, 100%, 100%)" stroke-opacity="1" stroke-miterlimit="2.61313" d="M 22492.8125 16504.609375 L 22574.6875 16325.585938 L 22770.195312 16303.085938 L 22625.195312 16169.882812 L 22664.296875 15976.992188 L 22492.8125 16073.789062 L 22321.40625 15976.992188 L 22360.390625 16169.882812 L 22215.390625 16303.085938 L 22411.015625 16325.585938 Z M 22492.8125 16504.609375 " transform="matrix(0.1, 0, 0, -0.1, 0, 2803)"/>
<path fill-rule="evenodd" fill="rgb(100%, 100%, 100%)" fill-opacity="1" d="M 1442.800781 1253.628906 L 1451.308594 1272.261719 L 1471.648438 1274.601562 L 1456.570312 1288.441406 L 1460.628906 1308.5 L 1442.800781 1298.441406 L 1424.96875 1308.5 L 1429.03125 1288.441406 L 1413.949219 1274.601562 L 1434.300781 1272.261719 L 1442.800781 1253.628906 "/>
<path fill="none" stroke-width="138.321" stroke-linecap="butt" stroke-linejoin="miter" stroke="rgb(100%, 100%, 100%)" stroke-opacity="1" stroke-miterlimit="2.61313" d="M 14428.007812 15493.710938 L 14513.085938 15307.382812 L 14716.484375 15283.984375 L 14565.703125 15145.585938 L 14606.289062 14945 L 14428.007812 15045.585938 L 14249.6875 14945 L 14290.3125 15145.585938 L 14139.492188 15283.984375 L 14343.007812 15307.382812 Z M 14428.007812 15493.710938 " transform="matrix(0.1, 0, 0, -0.1, 0, 2803)"/>
<path fill-rule="evenodd" fill="rgb(100%, 100%, 100%)" fill-opacity="1" d="M 1769.429688 1404.601562 L 1777.949219 1423.210938 L 1798.28125 1425.558594 L 1783.199219 1439.398438 L 1787.269531 1459.46875 L 1769.429688 1449.410156 L 1751.609375 1459.46875 L 1755.671875 1439.398438 L 1740.589844 1425.558594 L 1760.929688 1423.210938 L 1769.429688 1404.601562 "/>
<path fill="none" stroke-width="138.321" stroke-linecap="butt" stroke-linejoin="miter" stroke="rgb(100%, 100%, 100%)" stroke-opacity="1" stroke-miterlimit="2.61313" d="M 17694.296875 13983.984375 L 17779.492188 13797.890625 L 17982.8125 13774.414062 L 17831.992188 13636.015625 L 17872.695312 13435.3125 L 17694.296875 13535.898438 L 17516.09375 13435.3125 L 17556.71875 13636.015625 L 17405.898438 13774.414062 L 17609.296875 13797.890625 Z M 17694.296875 13983.984375 " transform="matrix(0.1, 0, 0, -0.1, 0, 2803)"/>
<path fill-rule="evenodd" fill="rgb(100%, 100%, 100%)" fill-opacity="1" d="M 2031.351562 1473.140625 L 2040.53125 1493.21875 L 2062.460938 1495.730469 L 2046.199219 1510.671875 L 2050.570312 1532.308594 L 2031.351562 1521.449219 L 2012.128906 1532.308594 L 2016.511719 1510.671875 L 2000.25 1495.730469 L 2022.171875 1493.21875 L 2031.351562 1473.140625 "/>
<path fill="none" stroke-width="138.321" stroke-linecap="butt" stroke-linejoin="miter" stroke="rgb(100%, 100%, 100%)" stroke-opacity="1" stroke-miterlimit="2.61313" d="M 20313.515625 13298.59375 L 20405.3125 13097.8125 L 20624.609375 13072.695312 L 20461.992188 12923.28125 L 20505.703125 12706.914062 L 20313.515625 12815.507812 L 20121.289062 12706.914062 L 20165.117188 12923.28125 L 20002.5 13072.695312 L 20221.71875 13097.8125 Z M 20313.515625 13298.59375 " transform="matrix(0.1, 0, 0, -0.1, 0, 2803)"/>
<path fill-rule="evenodd" fill="rgb(100%, 100%, 100%)" fill-opacity="1" d="M 2218.511719 1360.371094 L 2224.179688 1372.78125 L 2237.730469 1374.328125 L 2227.679688 1383.570312 L 2230.390625 1396.941406 L 2218.511719 1390.230469 L 2206.628906 1396.941406 L 2209.328125 1383.570312 L 2199.289062 1374.328125 L 2212.839844 1372.78125 L 2218.511719 1360.371094 "/>
<path fill="none" stroke-width="138.321" stroke-linecap="butt" stroke-linejoin="miter" stroke="rgb(100%, 100%, 100%)" stroke-opacity="1" stroke-miterlimit="2.61313" d="M 22185.117188 14426.289062 L 22241.796875 14302.1875 L 22377.304688 14286.71875 L 22276.796875 14194.296875 L 22303.90625 14060.585938 L 22185.117188 14127.695312 L 22066.289062 14060.585938 L 22093.28125 14194.296875 L 21992.890625 14286.71875 L 22128.398438 14302.1875 Z M 22185.117188 14426.289062 " transform="matrix(0.1, 0, 0, -0.1, 0, 2803)"/>
<path fill-rule="evenodd" fill="rgb(100%, 100%, 100%)" fill-opacity="1" d="M 1512.828125 1547.648438 L 1521.339844 1566.261719 L 1541.679688 1568.601562 L 1526.589844 1582.441406 L 1530.660156 1602.511719 L 1512.828125 1592.449219 L 1495.011719 1602.511719 L 1499.058594 1582.441406 L 1483.980469 1568.601562 L 1504.328125 1566.261719 L 1512.828125 1547.648438 "/>
<path fill="none" stroke-width="138.321" stroke-linecap="butt" stroke-linejoin="miter" stroke="rgb(100%, 100%, 100%)" stroke-opacity="1" stroke-miterlimit="2.61313" d="M 15128.28125 12553.515625 L 15213.398438 12367.382812 L 15416.796875 12343.984375 L 15265.898438 12205.585938 L 15306.601562 12004.882812 L 15128.28125 12105.507812 L 14950.117188 12004.882812 L 14990.585938 12205.585938 L 14839.804688 12343.984375 L 15043.28125 12367.382812 Z M 15128.28125 12553.515625 " transform="matrix(0.1, 0, 0, -0.1, 0, 2803)"/>
<path fill-rule="evenodd" fill="rgb(100%, 100%, 100%)" fill-opacity="1" d="M 1767.710938 1765.339844 L 1775.371094 1782.128906 L 1793.71875 1784.230469 L 1780.121094 1796.71875 L 1783.78125 1814.808594 L 1767.710938 1805.730469 L 1751.640625 1814.808594 L 1755.289062 1796.71875 L 1741.691406 1784.230469 L 1760.039062 1782.128906 L 1767.710938 1765.339844 "/>
<path fill="none" stroke-width="138.321" stroke-linecap="butt" stroke-linejoin="miter" stroke="rgb(100%, 100%, 100%)" stroke-opacity="1" stroke-miterlimit="2.61313" d="M 17677.109375 10376.601562 L 17753.710938 10208.710938 L 17937.1875 10187.695312 L 17801.210938 10062.8125 L 17837.8125 9881.914062 L 17677.109375 9972.695312 L 17516.40625 9881.914062 L 17552.890625 10062.8125 L 17416.914062 10187.695312 L 17600.390625 10208.710938 Z M 17677.109375 10376.601562 " transform="matrix(0.1, 0, 0, -0.1, 0, 2803)"/>
<path fill-rule="evenodd" fill="rgb(100%, 100%, 100%)" fill-opacity="1" d="M 2042.578125 1697.230469 L 2050.25 1714.019531 L 2068.601562 1716.140625 L 2055 1728.609375 L 2058.660156 1746.699219 L 2042.578125 1737.628906 L 2026.511719 1746.699219 L 2030.171875 1728.609375 L 2016.570312 1716.140625 L 2034.910156 1714.019531 L 2042.578125 1697.230469 "/>
<path fill="none" stroke-width="138.321" stroke-linecap="butt" stroke-linejoin="miter" stroke="rgb(100%, 100%, 100%)" stroke-opacity="1" stroke-miterlimit="2.61313" d="M 20425.78125 11057.695312 L 20502.5 10889.804688 L 20686.015625 10868.59375 L 20550 10743.90625 L 20586.601562 10563.007812 L 20425.78125 10653.710938 L 20265.117188 10563.007812 L 20301.71875 10743.90625 L 20165.703125 10868.59375 L 20349.101562 10889.804688 Z M 20425.78125 11057.695312 " transform="matrix(0.1, 0, 0, -0.1, 0, 2803)"/>
<path fill-rule="evenodd" fill="rgb(100%, 100%, 100%)" fill-opacity="1" d="M 2245.820312 1880.1875 L 2253.488281 1896.964844 L 2271.820312 1899.074219 L 2258.230469 1911.5625 L 2261.890625 1929.652344 L 2245.820312 1920.578125 L 2229.738281 1929.652344 L 2233.410156 1911.5625 L 2219.808594 1899.074219 L 2238.148438 1896.964844 L 2245.820312 1880.1875 "/>
<path fill="none" stroke-width="138.321" stroke-linecap="butt" stroke-linejoin="miter" stroke="rgb(100%, 100%, 100%)" stroke-opacity="1" stroke-miterlimit="2.61313" d="M 22458.203125 9228.125 L 22534.882812 9060.351562 L 22718.203125 9039.257812 L 22582.304688 8914.375 L 22618.90625 8733.476562 L 22458.203125 8824.21875 L 22297.382812 8733.476562 L 22334.101562 8914.375 L 22198.085938 9039.257812 L 22381.484375 9060.351562 Z M 22458.203125 9228.125 " transform="matrix(0.1, 0, 0, -0.1, 0, 2803)"/>
<path fill-rule="evenodd" fill="rgb(100%, 100%, 100%)" fill-opacity="1" d="M 1417.910156 1624.21875 L 1422.890625 1635.109375 L 1434.789062 1636.480469 L 1425.960938 1644.578125 L 1428.339844 1656.320312 L 1417.910156 1650.441406 L 1407.460938 1656.320312 L 1409.839844 1644.578125 L 1401.019531 1636.480469 L 1412.929688 1635.109375 L 1417.910156 1624.21875 "/>
<path fill="none" stroke-width="138.321" stroke-linecap="butt" stroke-linejoin="miter" stroke="rgb(100%, 100%, 100%)" stroke-opacity="1" stroke-miterlimit="2.61313" d="M 14179.101562 11787.8125 L 14228.90625 11678.90625 L 14347.890625 11665.195312 L 14259.609375 11584.21875 L 14283.398438 11466.796875 L 14179.101562 11525.585938 L 14074.609375 11466.796875 L 14098.398438 11584.21875 L 14010.195312 11665.195312 L 14129.296875 11678.90625 Z M 14179.101562 11787.8125 " transform="matrix(0.1, 0, 0, -0.1, 0, 2803)"/>
<path fill-rule="evenodd" fill="rgb(100%, 100%, 100%)" fill-opacity="1" d="M 1585.21875 1524.648438 L 1588.390625 1531.558594 L 1595.929688 1532.429688 L 1590.339844 1537.578125 L 1591.839844 1545.03125 L 1585.21875 1541.289062 L 1578.601562 1545.03125 L 1580.109375 1537.578125 L 1574.5 1532.429688 L 1582.058594 1531.558594 L 1585.21875 1524.648438 "/>
<path fill="none" stroke-width="138.321" stroke-linecap="butt" stroke-linejoin="miter" stroke="rgb(100%, 100%, 100%)" stroke-opacity="1" stroke-miterlimit="2.61313" d="M 15852.1875 12783.515625 L 15883.90625 12714.414062 L 15959.296875 12705.703125 L 15903.398438 12654.21875 L 15918.398438 12579.6875 L 15852.1875 12617.109375 L 15786.015625 12579.6875 L 15801.09375 12654.21875 L 15745 12705.703125 L 15820.585938 12714.414062 Z M 15852.1875 12783.515625 " transform="matrix(0.1, 0, 0, -0.1, 0, 2803)"/>
<path fill-rule="evenodd" fill="rgb(100%, 100%, 100%)" fill-opacity="1" d="M 1653.101562 1628 L 1658.070312 1638.890625 L 1669.980469 1640.269531 L 1661.148438 1648.371094 L 1663.53125 1660.101562 L 1653.101562 1654.21875 L 1642.660156 1660.101562 L 1645.039062 1648.371094 L 1636.210938 1640.269531 L 1648.121094 1638.890625 L 1653.101562 1628 "/>
<path fill="none" stroke-width="138.321" stroke-linecap="butt" stroke-linejoin="miter" stroke="rgb(100%, 100%, 100%)" stroke-opacity="1" stroke-miterlimit="2.61313" d="M 16531.015625 11750 L 16580.703125 11641.09375 L 16699.804688 11627.304688 L 16611.484375 11546.289062 L 16635.3125 11428.984375 L 16531.015625 11487.8125 L 16426.601562 11428.984375 L 16450.390625 11546.289062 L 16362.109375 11627.304688 L 16481.210938 11641.09375 Z M 16531.015625 11750 " transform="matrix(0.1, 0, 0, -0.1, 0, 2803)"/>
<path fill-rule="evenodd" fill="rgb(100%, 100%, 100%)" fill-opacity="1" d="M 1622.5 1701.898438 L 1627.480469 1712.800781 L 1639.378906 1714.160156 L 1630.558594 1722.269531 L 1632.929688 1734.011719 L 1622.5 1728.121094 L 1612.070312 1734.011719 L 1614.441406 1722.269531 L 1605.621094 1714.160156 L 1617.519531 1712.800781 L 1622.5 1701.898438 "/>
<path fill="none" stroke-width="138.321" stroke-linecap="butt" stroke-linejoin="miter" stroke="rgb(100%, 100%, 100%)" stroke-opacity="1" stroke-miterlimit="2.61313" d="M 16225 11011.015625 L 16274.804688 10901.992188 L 16393.789062 10888.398438 L 16305.585938 10807.304688 L 16329.296875 10689.882812 L 16225 10748.789062 L 16120.703125 10689.882812 L 16144.414062 10807.304688 L 16056.210938 10888.398438 L 16175.195312 10901.992188 Z M 16225 11011.015625 " transform="matrix(0.1, 0, 0, -0.1, 0, 2803)"/>
<path fill-rule="evenodd" fill="rgb(100%, 100%, 100%)" fill-opacity="1" d="M 2040.359375 1937.054688 L 2043.519531 1943.972656 L 2051.070312 1944.839844 L 2045.46875 1949.984375 L 2046.980469 1957.4375 L 2040.359375 1953.703125 L 2033.738281 1957.4375 L 2035.238281 1949.984375 L 2029.640625 1944.839844 L 2037.199219 1943.972656 L 2040.359375 1937.054688 "/>
<path fill="none" stroke-width="138.321" stroke-linecap="butt" stroke-linejoin="miter" stroke="rgb(100%, 100%, 100%)" stroke-opacity="1" stroke-miterlimit="2.61313" d="M 20403.59375 8659.453125 L 20435.195312 8590.273438 L 20510.703125 8581.601562 L 20454.6875 8530.15625 L 20469.804688 8455.625 L 20403.59375 8492.96875 L 20337.382812 8455.625 L 20352.382812 8530.15625 L 20296.40625 8581.601562 L 20371.992188 8590.273438 Z M 20403.59375 8659.453125 " transform="matrix(0.1, 0, 0, -0.1, 0, 2803)"/>
<path fill-rule="evenodd" fill="rgb(100%, 100%, 100%)" fill-opacity="1" d="M 2018.679688 1631.039062 L 2021.839844 1637.949219 L 2029.398438 1638.820312 L 2023.800781 1643.960938 L 2025.308594 1651.421875 L 2018.679688 1647.671875 L 2012.058594 1651.421875 L 2013.570312 1643.960938 L 2007.96875 1638.820312 L 2015.53125 1637.949219 L 2018.679688 1631.039062 "/>
<path fill="none" stroke-width="138.321" stroke-linecap="butt" stroke-linejoin="miter" stroke="rgb(100%, 100%, 100%)" stroke-opacity="1" stroke-miterlimit="2.61313" d="M 20186.796875 11719.609375 L 20218.398438 11650.507812 L 20293.984375 11641.796875 L 20238.007812 11590.390625 L 20253.085938 11515.78125 L 20186.796875 11553.28125 L 20120.585938 11515.78125 L 20135.703125 11590.390625 L 20079.6875 11641.796875 L 20155.3125 11650.507812 Z M 20186.796875 11719.609375 " transform="matrix(0.1, 0, 0, -0.1, 0, 2803)"/>
<path fill-rule="evenodd" fill="rgb(100%, 100%, 100%)" fill-opacity="1" d="M 2190.03125 1779.300781 L 2193.191406 1786.210938 L 2200.75 1787.078125 L 2195.148438 1792.21875 L 2196.648438 1799.671875 L 2190.03125 1795.929688 L 2183.398438 1799.671875 L 2184.910156 1792.21875 L 2179.308594 1787.078125 L 2186.878906 1786.210938 L 2190.03125 1779.300781 "/>
<path fill="none" stroke-width="138.321" stroke-linecap="butt" stroke-linejoin="miter" stroke="rgb(100%, 100%, 100%)" stroke-opacity="1" stroke-miterlimit="2.61313" d="M 21900.3125 10236.992188 L 21931.914062 10167.890625 L 22007.5 10159.21875 L 21951.484375 10107.8125 L 21966.484375 10033.28125 L 21900.3125 10070.703125 L 21833.984375 10033.28125 L 21849.101562 10107.8125 L 21793.085938 10159.21875 L 21868.789062 10167.890625 Z M 21900.3125 10236.992188 " transform="matrix(0.1, 0, 0, -0.1, 0, 2803)"/>
<path fill-rule="evenodd" fill="rgb(100%, 100%, 100%)" fill-opacity="1" d="M 2290.230469 1782.191406 L 2292.699219 1787.589844 L 2298.601562 1788.269531 L 2294.21875 1792.28125 L 2295.398438 1798.101562 L 2290.230469 1795.179688 L 2285.058594 1798.101562 L 2286.230469 1792.28125 L 2281.871094 1788.269531 L 2287.761719 1787.589844 L 2290.230469 1782.191406 "/>
<path fill="none" stroke-width="138.321" stroke-linecap="butt" stroke-linejoin="miter" stroke="rgb(100%, 100%, 100%)" stroke-opacity="1" stroke-miterlimit="2.61313" d="M 22902.304688 10208.085938 L 22926.992188 10154.101562 L 22986.015625 10147.304688 L 22942.1875 10107.1875 L 22953.984375 10048.984375 L 22902.304688 10078.203125 L 22850.585938 10048.984375 L 22862.304688 10107.1875 L 22818.710938 10147.304688 L 22877.617188 10154.101562 Z M 22902.304688 10208.085938 " transform="matrix(0.1, 0, 0, -0.1, 0, 2803)"/>
<path fill-rule="evenodd" fill="rgb(100%, 100%, 100%)" fill-opacity="1" d="M 2397.730469 1774.898438 L 2402.730469 1785.828125 L 2414.671875 1787.210938 L 2405.808594 1795.339844 L 2408.199219 1807.121094 L 2397.730469 1801.210938 L 2387.269531 1807.121094 L 2389.648438 1795.339844 L 2380.789062 1787.210938 L 2392.730469 1785.828125 L 2397.730469 1774.898438 "/>
<path fill="none" stroke-width="138.321" stroke-linecap="butt" stroke-linejoin="miter" stroke="rgb(100%, 100%, 100%)" stroke-opacity="1" stroke-miterlimit="2.61313" d="M 23977.304688 10281.015625 L 24027.304688 10171.71875 L 24146.71875 10157.890625 L 24058.085938 10076.601562 L 24081.992188 9958.789062 L 23977.304688 10017.890625 L 23872.695312 9958.789062 L 23896.484375 10076.601562 L 23807.890625 10157.890625 L 23927.304688 10171.71875 Z M 23977.304688 10281.015625 " transform="matrix(0.1, 0, 0, -0.1, 0, 2803)"/>
<path fill-rule="evenodd" fill="rgb(100%, 100%, 100%)" fill-opacity="1" d="M 2451.28125 1772.988281 L 2455.441406 1782.089844 L 2465.371094 1783.230469 L 2458.011719 1789.988281 L 2459.988281 1799.789062 L 2451.28125 1794.878906 L 2442.578125 1799.789062 L 2444.558594 1789.988281 L 2437.191406 1783.230469 L 2447.128906 1782.089844 L 2451.28125 1772.988281 "/>
<path fill="none" stroke-width="138.321" stroke-linecap="butt" stroke-linejoin="miter" stroke="rgb(100%, 100%, 100%)" stroke-opacity="1" stroke-miterlimit="2.61313" d="M 24512.8125 10300.117188 L 24554.414062 10209.101562 L 24653.710938 10197.695312 L 24580.117188 10130.117188 L 24599.882812 10032.109375 L 24512.8125 10081.210938 L 24425.78125 10032.109375 L 24445.585938 10130.117188 L 24371.914062 10197.695312 L 24471.289062 10209.101562 Z M 24512.8125 10300.117188 " transform="matrix(0.1, 0, 0, -0.1, 0, 2803)"/>
<path fill-rule="evenodd" fill="rgb(100%, 100%, 100%)" fill-opacity="1" d="M 2395.78125 1855.492188 L 2399.941406 1864.585938 L 2409.871094 1865.726562 L 2402.5 1872.496094 L 2404.488281 1882.296875 L 2395.78125 1877.382812 L 2387.070312 1882.296875 L 2389.050781 1872.496094 L 2381.691406 1865.726562 L 2391.621094 1864.585938 L 2395.78125 1855.492188 "/>
<path fill="none" stroke-width="138.321" stroke-linecap="butt" stroke-linejoin="miter" stroke="rgb(100%, 100%, 100%)" stroke-opacity="1" stroke-miterlimit="2.61313" d="M 23957.8125 9475.078125 L 23999.414062 9384.140625 L 24098.710938 9372.734375 L 24025 9305.039062 L 24044.882812 9207.03125 L 23957.8125 9256.171875 L 23870.703125 9207.03125 L 23890.507812 9305.039062 L 23816.914062 9372.734375 L 23916.210938 9384.140625 Z M 23957.8125 9475.078125 " transform="matrix(0.1, 0, 0, -0.1, 0, 2803)"/>
<path fill-rule="evenodd" fill="rgb(100%, 100%, 100%)" fill-opacity="1" d="M 2398.378906 1916.175781 L 2402.53125 1925.273438 L 2412.460938 1926.417969 L 2405.109375 1933.179688 L 2407.089844 1942.980469 L 2398.378906 1938.066406 L 2389.679688 1942.980469 L 2391.660156 1933.179688 L 2384.289062 1926.417969 L 2394.21875 1925.273438 L 2398.378906 1916.175781 "/>
<path fill="none" stroke-width="138.321" stroke-linecap="butt" stroke-linejoin="miter" stroke="rgb(100%, 100%, 100%)" stroke-opacity="1" stroke-miterlimit="2.61313" d="M 23983.789062 8868.242188 L 24025.3125 8777.265625 L 24124.609375 8765.820312 L 24051.09375 8698.203125 L 24070.898438 8600.195312 L 23983.789062 8649.335938 L 23896.796875 8600.195312 L 23916.601562 8698.203125 L 23842.890625 8765.820312 L 23942.1875 8777.265625 Z M 23983.789062 8868.242188 " transform="matrix(0.1, 0, 0, -0.1, 0, 2803)"/>
<path fill-rule="evenodd" fill="rgb(100%, 100%, 100%)" fill-opacity="1" d="M 2518.800781 1752.96875 L 2524.929688 1766.398438 L 2539.609375 1768.089844 L 2528.71875 1778.078125 L 2531.660156 1792.550781 L 2518.800781 1785.289062 L 2505.941406 1792.550781 L 2508.871094 1778.078125 L 2497.988281 1768.089844 L 2512.660156 1766.398438 L 2518.800781 1752.96875 "/>
<path fill="none" stroke-width="138.321" stroke-linecap="butt" stroke-linejoin="miter" stroke="rgb(100%, 100%, 100%)" stroke-opacity="1" stroke-miterlimit="2.61313" d="M 25188.007812 10500.3125 L 25249.296875 10366.015625 L 25396.09375 10349.101562 L 25287.1875 10249.21875 L 25316.601562 10104.492188 L 25188.007812 10177.109375 L 25059.414062 10104.492188 L 25088.710938 10249.21875 L 24979.882812 10349.101562 L 25126.601562 10366.015625 Z M 25188.007812 10500.3125 " transform="matrix(0.1, 0, 0, -0.1, 0, 2803)"/>
<path fill-rule="evenodd" fill="rgb(100%, 100%, 100%)" fill-opacity="1" d="M 2621.300781 1635.808594 L 2625.460938 1644.898438 L 2635.390625 1646.050781 L 2628.03125 1652.808594 L 2630.011719 1662.609375 L 2621.300781 1657.699219 L 2612.601562 1662.609375 L 2614.578125 1652.808594 L 2607.210938 1646.050781 L 2617.140625 1644.898438 L 2621.300781 1635.808594 "/>
<path fill="none" stroke-width="138.321" stroke-linecap="butt" stroke-linejoin="miter" stroke="rgb(100%, 100%, 100%)" stroke-opacity="1" stroke-miterlimit="2.61313" d="M 26213.007812 11671.914062 L 26254.609375 11581.015625 L 26353.90625 11569.492188 L 26280.3125 11501.914062 L 26300.117188 11403.90625 L 26213.007812 11453.007812 L 26126.015625 11403.90625 L 26145.78125 11501.914062 L 26072.109375 11569.492188 L 26171.40625 11581.015625 Z M 26213.007812 11671.914062 " transform="matrix(0.1, 0, 0, -0.1, 0, 2803)"/>
<path fill-rule="evenodd" fill="rgb(100%, 100%, 100%)" fill-opacity="1" d="M 2528.398438 1624.140625 L 2536.308594 1641.441406 L 2555.210938 1643.621094 L 2541.199219 1656.480469 L 2544.960938 1675.128906 L 2528.398438 1665.78125 L 2511.828125 1675.128906 L 2515.609375 1656.480469 L 2501.601562 1643.621094 L 2520.488281 1641.441406 L 2528.398438 1624.140625 "/>
<path fill="none" stroke-width="138.321" stroke-linecap="butt" stroke-linejoin="miter" stroke="rgb(100%, 100%, 100%)" stroke-opacity="1" stroke-miterlimit="2.61313" d="M 25283.984375 11788.59375 L 25363.085938 11615.585938 L 25552.109375 11593.789062 L 25411.992188 11465.195312 L 25449.609375 11278.710938 L 25283.984375 11372.1875 L 25118.28125 11278.710938 L 25156.09375 11465.195312 L 25016.015625 11593.789062 L 25204.882812 11615.585938 Z M 25283.984375 11788.59375 " transform="matrix(0.1, 0, 0, -0.1, 0, 2803)"/>
<path fill-rule="evenodd" fill="rgb(100%, 100%, 100%)" fill-opacity="1" d="M 1966.03125 1564.550781 L 1971.011719 1575.441406 L 1982.910156 1576.808594 L 1974.089844 1584.910156 L 1976.46875 1596.648438 L 1966.03125 1590.761719 L 1955.601562 1596.648438 L 1957.980469 1584.910156 L 1949.148438 1576.808594 L 1961.050781 1575.441406 L 1966.03125 1564.550781 "/>
<path fill="none" stroke-width="138.321" stroke-linecap="butt" stroke-linejoin="miter" stroke="rgb(100%, 100%, 100%)" stroke-opacity="1" stroke-miterlimit="2.61313" d="M 19660.3125 12384.492188 L 19710.117188 12275.585938 L 19829.101562 12261.914062 L 19740.898438 12180.898438 L 19764.6875 12063.515625 L 19660.3125 12122.382812 L 19556.015625 12063.515625 L 19579.804688 12180.898438 L 19491.484375 12261.914062 L 19610.507812 12275.585938 Z M 19660.3125 12384.492188 " transform="matrix(0.1, 0, 0, -0.1, 0, 2803)"/>
<path fill-rule="evenodd" fill="rgb(100%, 100%, 100%)" fill-opacity="1" d="M 2107.441406 1561.371094 L 2112.421875 1572.269531 L 2124.328125 1573.640625 L 2115.5 1581.738281 L 2117.871094 1593.480469 L 2107.441406 1587.589844 L 2097.011719 1593.480469 L 2099.390625 1581.738281 L 2090.558594 1573.640625 L 2102.460938 1572.269531 L 2107.441406 1561.371094 "/>
<path fill="none" stroke-width="138.321" stroke-linecap="butt" stroke-linejoin="miter" stroke="rgb(100%, 100%, 100%)" stroke-opacity="1" stroke-miterlimit="2.61313" d="M 21074.414062 12416.289062 L 21124.21875 12307.304688 L 21243.28125 12293.59375 L 21155 12212.617188 L 21178.710938 12095.195312 L 21074.414062 12154.101562 L 20970.117188 12095.195312 L 20993.90625 12212.617188 L 20905.585938 12293.59375 L 21024.609375 12307.304688 Z M 21074.414062 12416.289062 " transform="matrix(0.1, 0, 0, -0.1, 0, 2803)"/>
<path fill-rule="evenodd" fill="rgb(100%, 100%, 100%)" fill-opacity="1" d="M 2535.269531 1701.28125 L 2539.429688 1710.378906 L 2549.359375 1711.519531 L 2541.988281 1718.289062 L 2543.988281 1728.089844 L 2535.269531 1723.171875 L 2526.570312 1728.089844 L 2528.550781 1718.289062 L 2521.179688 1711.519531 L 2531.121094 1710.378906 L 2535.269531 1701.28125 "/>
<path fill="none" stroke-width="138.321" stroke-linecap="butt" stroke-linejoin="miter" stroke="rgb(100%, 100%, 100%)" stroke-opacity="1" stroke-miterlimit="2.61313" d="M 25352.695312 11017.1875 L 25394.296875 10926.210938 L 25493.59375 10914.804688 L 25419.882812 10847.109375 L 25439.882812 10749.101562 L 25352.695312 10798.28125 L 25265.703125 10749.101562 L 25285.507812 10847.109375 L 25211.796875 10914.804688 L 25311.210938 10926.210938 Z M 25352.695312 11017.1875 " transform="matrix(0.1, 0, 0, -0.1, 0, 2803)"/>
<path fill-rule="nonzero" fill="rgb(19.993591%, 62.693787%, 23.925781%)" fill-opacity="1" d="M 2140.609375 1248.808594 C 2143.238281 1240.628906 2146.710938 1234.171875 2150.949219 1229.421875 C 2154.101562 1225.929688 2157.78125 1223.070312 2161.980469 1220.851562 C 2166.191406 1218.621094 2170.429688 1217.339844 2174.691406 1216.980469 C 2180.378906 1216.5 2186.480469 1217.320312 2193.019531 1219.441406 C 2204.839844 1223.269531 2213.089844 1230 2217.808594 1239.628906 C 2222.53125 1249.28125 2222.761719 1260.621094 2218.53125 1273.671875 C 2214.328125 1286.621094 2207.519531 1295.609375 2198.101562 1300.640625 C 2188.691406 1305.671875 2178.078125 1306.269531 2166.300781 1302.460938 C 2154.390625 1298.578125 2146.078125 1291.859375 2141.410156 1282.300781 C 2136.730469 1272.730469 2136.460938 1261.558594 2140.609375 1248.808594 Z M 2157.46875 1253.691406 C 2154.519531 1262.761719 2154.378906 1270.320312 2157.050781 1276.378906 C 2159.738281 1282.410156 2164.308594 1286.5 2170.75 1288.589844 C 2177.21875 1290.679688 2183.25 1290.070312 2188.898438 1286.761719 C 2194.550781 1283.46875 2198.890625 1277.160156 2201.910156 1267.851562 C 2204.898438 1258.671875 2205.089844 1251.160156 2202.550781 1245.320312 C 2199.988281 1239.5 2195.359375 1235.488281 2188.691406 1233.328125 C 2182.019531 1231.160156 2175.890625 1231.691406 2170.308594 1234.949219 C 2164.75 1238.199219 2160.46875 1244.449219 2157.46875 1253.691406 "/>
<path fill-rule="nonzero" fill="rgb(19.993591%, 62.693787%, 23.925781%)" fill-opacity="1" d="M 1413.71875 1131.371094 C 1413.261719 1122.808594 1414.148438 1115.519531 1416.429688 1109.578125 C 1418.109375 1105.171875 1420.511719 1101.199219 1423.648438 1097.601562 C 1426.769531 1094.019531 1430.269531 1091.308594 1434.140625 1089.441406 C 1439.269531 1086.941406 1445.261719 1085.519531 1452.109375 1085.140625 C 1464.511719 1084.480469 1474.648438 1087.820312 1482.519531 1095.101562 C 1490.371094 1102.398438 1494.660156 1112.898438 1495.398438 1126.628906 C 1496.121094 1140.21875 1492.980469 1151.050781 1486.011719 1159.128906 C 1479.019531 1167.199219 1469.351562 1171.570312 1456.980469 1172.230469 C 1444.449219 1172.910156 1434.28125 1169.609375 1426.5 1162.359375 C 1418.691406 1155.101562 1414.429688 1144.789062 1413.71875 1131.371094 Z M 1431.21875 1129.859375 C 1431.71875 1139.410156 1434.308594 1146.519531 1438.988281 1151.21875 C 1443.640625 1155.878906 1449.371094 1158.058594 1456.140625 1157.699219 C 1462.921875 1157.328125 1468.359375 1154.589844 1472.449219 1149.480469 C 1476.53125 1144.371094 1478.308594 1136.941406 1477.789062 1127.171875 C 1477.28125 1117.5 1474.789062 1110.398438 1470.289062 1105.898438 C 1465.808594 1101.378906 1460.070312 1099.308594 1453.050781 1099.679688 C 1446.058594 1100.039062 1440.511719 1102.761719 1436.488281 1107.789062 C 1432.46875 1112.820312 1430.699219 1120.179688 1431.21875 1129.859375 "/>
</svg>
